<svg width="20" height="20" viewBox="0 0 20 20" fill="none" xmlns="http://www.w3.org/2000/svg">
<path d="M16.9566 6.3032L8.12324 15.1365C8.04501 15.2154 7.93851 15.2598 7.82741 15.2598C7.71631 15.2598 7.60981 15.2154 7.53157 15.1365L3.03991 10.6448C2.96102 10.5667 2.91666 10.4602 2.91666 10.349C2.91666 10.2379 2.96102 10.1314 3.03991 10.0532L3.62324 9.46984C3.70147 9.391 3.80797 9.34659 3.91907 9.34659C4.03017 9.34659 4.13667 9.391 4.21491 9.46984L7.82324 13.0782L15.7816 5.11987C15.9464 4.96004 16.2084 4.96004 16.3732 5.11987L16.9566 5.71154C17.0355 5.78977 17.0798 5.89627 17.0798 6.00737C17.0798 6.11847 17.0355 6.22496 16.9566 6.3032Z" fill="white"/>
</svg>
