<svg width="20" height="20" viewBox="0 0 20 20" fill="none" xmlns="http://www.w3.org/2000/svg">
<path d="M16.9566 6.3032L8.12327 15.1365C8.04504 15.2154 7.93854 15.2598 7.82744 15.2598C7.71634 15.2598 7.60984 15.2154 7.5316 15.1365L3.03994 10.6448C2.96105 10.5667 2.91669 10.4602 2.91669 10.349C2.91669 10.2379 2.96105 10.1314 3.03994 10.0532L3.62327 9.46984C3.7015 9.391 3.808 9.34659 3.9191 9.34659C4.0302 9.34659 4.1367 9.391 4.21494 9.46984L7.82327 13.0782L15.7816 5.11987C15.9464 4.96004 16.2084 4.96004 16.3733 5.11987L16.9566 5.71154C17.0355 5.78977 17.0799 5.89627 17.0799 6.00737C17.0799 6.11847 17.0355 6.22496 16.9566 6.3032Z" fill="black"/>
</svg>
