<svg width="80" height="80" viewBox="0 0 80 80" fill="none" xmlns="http://www.w3.org/2000/svg">
<path d="M40 80C62.0914 80 80 62.0914 80 40C80 17.9086 62.0914 0 40 0C17.9086 0 0 17.9086 0 40C0 62.0914 17.9086 80 40 80Z" fill="#FBAE42"/>
<path d="M55.9482 42.0057C56.0452 41.8601 56.1423 41.6983 56.2717 41.4881C56.2879 41.4557 56.304 41.4395 56.3202 41.4072C56.5628 40.9543 56.9348 40.2911 56.951 40.2588C58.4391 37.3312 59.1993 34.1933 59.1993 30.9098C59.1993 30.554 59.1993 30.2143 59.1831 29.8585C59.1831 29.7129 59.167 29.5512 59.1508 29.4056L59.1346 29.1144C59.1346 29.0174 59.1184 28.9203 59.1184 28.8395C59.1022 28.7101 59.0861 28.5968 59.0861 28.4675L59.0537 28.2087C59.0376 28.0793 59.0214 27.9499 59.0052 27.8205C58.989 27.7234 58.9729 27.6264 58.9567 27.5293L58.9243 27.2705C58.9082 27.1249 58.8758 26.9794 58.8596 26.85C58.8435 26.7368 58.8111 26.6235 58.7949 26.5103L58.7302 26.203C58.7141 26.0898 58.6817 25.9927 58.6655 25.8957C58.6332 25.7501 58.5847 25.5884 58.5523 25.4428L58.4876 25.184C58.4714 25.1031 58.4553 25.0222 58.4229 24.9414C58.3744 24.7796 58.3259 24.6179 58.2773 24.4561L58.2126 24.262C58.1803 24.1812 58.1641 24.1003 58.1479 24.0356C58.0994 23.8738 58.0347 23.7283 57.9862 23.5665L57.9053 23.3562C57.873 23.2754 57.8568 23.2107 57.8244 23.146C57.7598 22.9681 57.6789 22.8063 57.6142 22.6284L57.5333 22.4343C57.5171 22.3858 57.4848 22.3211 57.4686 22.2726C57.3716 22.0461 57.2583 21.8197 57.1451 21.5932L57.0642 21.4315C56.951 21.205 56.8378 20.9948 56.6922 20.736L56.6275 20.6389C56.4981 20.4125 56.3526 20.186 56.1908 19.9272C56.1908 19.9272 56.1585 19.8625 56.1423 19.8625C55.9967 19.6361 55.8511 19.4096 55.6732 19.1832C55.6732 19.167 55.6409 19.1347 55.6247 19.1185C55.4629 18.892 55.285 18.6656 55.1233 18.4553C55.1233 18.4391 55.0909 18.4068 55.0748 18.4068C54.8968 18.1804 54.7027 17.9539 54.4925 17.7275C54.2984 17.501 54.0881 17.2907 53.8778 17.0805C50.3841 13.5867 45.5802 11.7267 40 11.7267C28.6938 11.7267 20.7844 19.6199 20.7844 30.9422C20.7844 34.4359 21.674 37.8973 23.3724 40.922L23.6635 41.4557C23.6797 41.4719 23.6797 41.4881 23.6959 41.5204L24.1811 42.2645C24.2296 42.3453 24.2943 42.4262 24.3105 42.4747L36.6033 63.1298H36.5871L39.4338 67.9175C39.5956 68.1763 39.8706 68.3381 40.1617 68.3381C40.469 68.3381 40.744 68.1763 40.8896 67.9175L43.6716 63.1298L55.657 42.5071C55.7703 42.2968 55.8511 42.1512 55.9482 42.0057ZM50.7561 31.1201C50.7399 31.2171 50.7238 31.3142 50.7076 31.4274L50.6752 31.6862C50.6591 31.8641 50.6267 32.0421 50.5944 32.2038C50.562 32.3332 50.5297 32.4626 50.4973 32.592L50.4326 32.867C50.4003 32.9964 50.3679 33.1096 50.3356 33.239C50.287 33.4007 50.2223 33.5625 50.1576 33.7242L50.0606 33.983C50.0282 34.0801 49.9959 34.1609 49.9636 34.2418C49.8827 34.4359 49.7856 34.63 49.6886 34.8241L49.6077 35.002C49.5754 35.0667 49.543 35.1314 49.5107 35.1961C49.3813 35.4387 49.2357 35.6652 49.0901 35.8916C49.0416 35.9887 49.0092 36.0372 48.9769 36.0857C48.8152 36.3283 48.6211 36.571 48.4431 36.8136C48.4108 36.8621 48.3946 36.8945 48.3623 36.9106C48.1682 37.1533 47.9417 37.3959 47.6991 37.6547C45.6449 39.725 42.9437 40.8734 40.0646 40.9058C40.0323 40.9058 39.9999 40.9058 39.9514 40.9058C33.9668 40.9058 29.0982 36.0372 29.0982 30.0526C29.0982 24.0679 33.9668 19.1994 39.9514 19.1994H40.0646C42.9437 19.2317 45.6449 20.3639 47.6667 22.4181L47.7153 22.4666C47.9579 22.7093 48.1682 22.9519 48.3623 23.1783C48.3946 23.2107 48.4108 23.243 48.427 23.2754C48.6211 23.518 48.799 23.7606 48.9769 24.0194C49.0092 24.0679 49.0416 24.1165 49.0578 24.165C49.2357 24.4399 49.3813 24.6664 49.5107 24.909C49.543 24.9737 49.5754 25.0384 49.6077 25.1031L49.6401 25.184C49.7695 25.4428 49.8665 25.6369 49.9636 25.8472C49.9959 25.928 50.0282 26.0251 50.0606 26.1221L50.1576 26.3647C50.2223 26.5265 50.2709 26.6721 50.3356 26.8338C50.3679 26.947 50.4003 27.0764 50.4326 27.2058L50.4973 27.4808C50.5297 27.6102 50.562 27.7396 50.5944 27.8852C50.6267 28.0469 50.6591 28.2248 50.6752 28.4028L50.7076 28.6616C50.7238 28.7586 50.7399 28.8556 50.7561 28.9527C50.7885 29.3247 50.8046 29.6967 50.8046 30.0526C50.8208 30.3922 50.7885 30.7643 50.7561 31.1201Z" fill="white"/>
<path d="M39.9518 35.4711C42.9623 35.4711 45.4027 33.0306 45.4027 30.0202C45.4027 27.0098 42.9623 24.5693 39.9518 24.5693C36.9414 24.5693 34.501 27.0098 34.501 30.0202C34.501 33.0306 36.9414 35.4711 39.9518 35.4711Z" fill="white"/>
</svg>
