<svg width="80" height="80" viewBox="0 0 80 80" fill="none" xmlns="http://www.w3.org/2000/svg">
<path d="M40 80C62.0914 80 80 62.0914 80 40C80 17.9086 62.0914 0 40 0C17.9086 0 0 17.9086 0 40C0 62.0914 17.9086 80 40 80Z" fill="#FBAE42"/>
<path d="M15.7708 24.7473L38.7388 41.7468C39.4505 42.2644 40.5504 42.2806 41.2621 41.7468L64.2463 24.8119L15.7708 24.7473Z" fill="white"/>
<path d="M32.091 38.7707L16.0942 53.6838C15.8354 53.2471 15.6575 52.7456 15.6575 52.2119V26.6559L32.091 38.7707Z" fill="white"/>
<path d="M46.4379 39.8383L62.5317 54.8807C62.0788 55.1072 61.5774 55.2204 61.0274 55.2204H18.9894C18.488 55.2204 18.0189 55.1233 17.5984 54.9292L33.676 39.9029L40.0003 44.5936L46.4379 39.8383Z" fill="white"/>
<path d="M64.3426 26.6397V52.2119C64.3426 52.6971 64.1647 53.1662 63.9383 53.5706L48.0386 38.6899L64.3426 26.6397Z" fill="white"/>
</svg>
