<svg width="80" height="80" viewBox="0 0 80 80" fill="none" xmlns="http://www.w3.org/2000/svg">
<path d="M40 80C62.0914 80 80 62.0914 80 40C80 17.9086 62.0914 0 40 0C17.9086 0 0 17.9086 0 40C0 62.0914 17.9086 80 40 80Z" fill="#FBAE42"/>
<path d="M31.072 15.8835C32.4145 16.385 32.9483 17.5172 33.2394 18.7788C33.8217 21.3021 34.3717 23.8415 34.9054 26.3809C34.9863 26.7691 35.0025 27.1735 35.0187 27.5617C35.0348 28.7748 34.4687 29.5997 33.3203 30.0202C32.5116 30.3114 31.719 30.5863 30.8941 30.829C30.1016 31.0716 29.6648 31.6053 29.4869 32.3817C29.2443 33.4007 29.2605 34.4036 29.6163 35.4226C31.5735 41.1484 34.954 45.8876 39.5152 49.8019C40.4372 50.5944 41.4885 51.2738 42.5399 51.8884C43.2031 52.2928 44.0118 52.3736 44.8043 52.2928C45.3705 52.2281 45.8395 51.9854 46.163 51.5002C46.6159 50.8532 47.0688 50.2062 47.5217 49.5431C48.4275 48.2167 49.495 47.8771 50.9993 48.5079C51.808 48.8476 52.5682 49.3004 53.3446 49.721C54.8003 50.5136 56.256 51.3223 57.6956 52.1148C58.0676 52.3251 58.4234 52.5354 58.7793 52.778C59.7498 53.425 60.5261 54.2014 60.6394 55.463C60.5908 55.7865 60.5423 56.11 60.4938 56.4173C60.1703 57.1452 59.9115 57.9054 59.5233 58.6171C57.8088 61.7064 55.2208 63.5989 51.6948 64.1003C50.9992 64.1973 50.2714 64.165 49.5597 64.1973C49.0098 64.1165 48.4598 64.0356 47.8937 63.9547C47.2305 63.7444 46.5674 63.5665 45.9204 63.3401C42.6693 62.1755 39.9358 60.2022 37.3802 57.9377C34.3231 55.2204 31.6705 52.131 29.2119 48.8799C26.2035 44.9009 23.4699 40.7279 21.4966 36.1181C20.3967 33.5625 19.5718 30.9098 19.3616 28.1116C19.2969 27.3029 19.313 26.478 19.2969 25.6531C19.3777 25.1031 19.4586 24.5532 19.5395 23.9871C19.588 23.8577 19.6365 23.7444 19.6689 23.615C20.7526 19.5714 23.4214 17.1128 27.4166 16.0615C28.29 15.835 29.1958 15.8189 30.1016 15.7056C30.425 15.7865 30.7485 15.835 31.072 15.8835Z" fill="white"/>
</svg>
