<svg width="62" height="62" viewBox="0 0 62 62" fill="none" xmlns="http://www.w3.org/2000/svg">
<g id="Icon / Instagram">
<path id="Vector" fill-rule="evenodd" clip-rule="evenodd" d="M41.3333 8.37695H20.6667C13.533 8.37695 7.75 14.16 7.75 21.2936V41.9603C7.75 49.0939 13.533 54.877 20.6667 54.877H41.3333C48.4669 54.877 54.25 49.0939 54.25 41.9603V21.2936C54.25 14.16 48.4669 8.37695 41.3333 8.37695ZM49.7292 41.9603C49.715 46.5912 45.9642 50.3419 41.3333 50.3561H20.6667C16.0357 50.3419 12.285 46.5912 12.2708 41.9603V21.2936C12.285 16.6626 16.0357 12.912 20.6667 12.8978H41.3333C45.9642 12.912 49.715 16.6626 49.7292 21.2936V41.9603ZM43.2708 21.9395C44.6976 21.9395 45.8542 20.7828 45.8542 19.3561C45.8542 17.9294 44.6976 16.7728 43.2708 16.7728C41.8441 16.7728 40.6875 17.9294 40.6875 19.3561C40.6875 20.7828 41.8441 21.9395 43.2708 21.9395ZM31 20.002C24.5797 20.002 19.375 25.2066 19.375 31.627C19.375 38.0473 24.5797 43.252 31 43.252C37.4204 43.252 42.625 38.0473 42.625 31.627C42.632 28.5417 41.4093 25.5808 39.2277 23.3992C37.046 21.2176 34.0853 19.9951 31 20.002ZM23.8958 31.627C23.8958 35.5505 27.0764 38.7311 31 38.7311C34.9236 38.7311 38.1042 35.5505 38.1042 31.627C38.1042 27.7034 34.9236 24.5228 31 24.5228C27.0764 24.5228 23.8958 27.7034 23.8958 31.627Z" fill="white"/>
</g>
</svg>
