<svg width="62" height="62" viewBox="0 0 62 62" fill="none" xmlns="http://www.w3.org/2000/svg">
<g id="Icon / Youtube">
<path id="Vector" d="M55.7819 18.6076C55.4877 17.5159 54.9126 16.5203 54.114 15.7199C53.3154 14.9195 52.3211 14.3422 51.2301 14.0454C47.1846 12.9346 31 12.9165 31 12.9165C31 12.9165 14.818 12.8984 10.7699 13.9602C9.67955 14.2706 8.68729 14.856 7.88838 15.6604C7.08946 16.4647 6.51073 17.4609 6.20775 18.5534C5.14083 22.5989 5.1305 30.9895 5.1305 30.9895C5.1305 30.9895 5.12016 39.4215 6.17933 43.4257C6.7735 45.6396 8.51725 47.3885 10.7337 47.9853C14.8206 49.0961 30.9612 49.1142 30.9612 49.1142C30.9612 49.1142 47.1458 49.1323 51.1913 48.0731C52.2828 47.7769 53.278 47.2009 54.0786 46.4022C54.8792 45.6034 55.4574 44.6095 55.7561 43.5187C56.8256 39.4758 56.8333 31.0877 56.8333 31.0877C56.8333 31.0877 56.885 22.6531 55.7819 18.6076ZM25.823 38.7628L25.8359 23.2628L39.2873 31.0257L25.823 38.7628Z" fill="white"/>
</g>
</svg>
